<svg xmlns="http://www.w3.org/2000/svg" viewBox="0 0 64 64">
  <rect width="64" height="64" rx="14" fill="#0f0b18"/>
  <path d="M12 52h40v5H12z" fill="#e8b86d"/>
  <path d="M16 47h32v5H16z" fill="#7c5ce8"/>
  <path d="M18 25h6v22h-6zM29 25h6v22h-6zM40 25h6v22h-6z" fill="#c4a8ff"/>
  <path d="M10 22 32 8l22 14v5H10z" fill="#e8b86d"/>
  <path d="M28 17a4 4 0 1 0 8 0 4 4 0 0 0-8 0z" fill="#0f0b18"/>
  <path d="M32 30c4 4 7 7 7 11a7 7 0 0 1-14 0c0-4 3-7 7-11z" fill="#f5d08a"/>
  <path d="M32 36c2 2 3 4 3 6a3 3 0 0 1-6 0c0-2 1-4 3-6z" fill="#7c5ce8"/>
</svg>
